#tb 0: 1/15360
#tb 1: 1/44100
0,          0,          0,      512,   153600, 0x77f19574
1,          0,          0,     1024,     4096, 0xbc03e44a
1,       1024,       1024,      446,     1784, 0xd7ac844f
0,        512,        512,      512,   153600, 0x84cd7faf
1,       1470,       1470,     1024,     4096, 0x31fcd87a
1,       2494,       2494,      446,     1784, 0x117aad1d
0,       1024,       1024,      512,   153600, 0x9dcd88d8
1,       2940,       2940,     1024,     4096, 0x4fe44c6b
1,       3964,       3964,      446,     1784, 0x097966a5
0,       1536,       1536,      512,   153600, 0x16207ea8
1,       4410,       4410,     1024,     4096, 0xf0b44d66
1,       5434,       5434,      446,     1784, 0x0470b473
0,       2048,       2048,      512,   153600, 0x4d2e6219
1,       5880,       5880,     1024,     4096, 0xd09c42ec
1,       6904,       6904,      446,     1784, 0xf5b34fef
0,       2560,       2560,      512,   153600, 0xd6c54ddd
1,       7350,       7350,     1024,     4096, 0x2b00fb63
1,       8374,       8374,      446,     1784, 0x25d2c5bd
0,       3072,       3072,      512,   153600, 0x5bff43da
1,       8820,       8820,     1024,     4096, 0x68e86c9c
1,       9844,       9844,      446,     1784, 0x7b0b650b
0,       3584,       3584,      512,   153600, 0xed4409bc
1,      10290,      10290,     1024,     4096, 0x8e3e46c2
1,      11314,      11314,      446,     1784, 0x72fc9937
0,       4096,       4096,      512,   153600, 0xc146fb01
1,      11760,      11760,     1024,     4096, 0x1b4b8ac8
1,      12784,      12784,      446,     1784, 0xee5a6549
0,       4608,       4608,      512,   153600, 0xe13cca92
1,      13230,      13230,     1024,     4096, 0x21356e6a
1,      14254,      14254,      446,     1784, 0x79fadafb
0,       5120,       5120,      512,   153600, 0x780ec89f
1,      14700,      14700,     1024,     4096, 0xc61a55f0
1,      15724,      15724,      446,     1784, 0x64fe38e1
0,       5632,       5632,      512,   153600, 0xfbe884e7
1,      16170,      16170,     1024,     4096, 0x200c5cf9
1,      17194,      17194,      446,     1784, 0x615d4a1d
0,       6144,       6144,      512,   153600, 0xcdc95b18
1,      17640,      17640,     1024,     4096, 0xdb6307ae
1,      18664,      18664,      446,     1784, 0x5bc57615
0,       6656,       6656,      512,   153600, 0x8e5a28e8
1,      19110,      19110,     1024,     4096, 0x2fec7686
1,      20134,      20134,      446,     1784, 0x2ba379e3
0,       7168,       7168,      512,   153600, 0x50dbf80d
1,      20580,      20580,     1024,     4096, 0xb1467a1a
1,      21604,      21604,      446,     1784, 0xb5fc193c
0,       7680,       7680,      512,   153600, 0xd465b6ca
1,      22050,      22050,     1024,     4096, 0x91a081a8
1,      23074,      23074,      446,     1784, 0x503fab5f
0,       8192,       8192,      512,   153600, 0x935591ae
1,      23520,      23520,     1024,     4096, 0x3646d9c9
1,      24544,      24544,      446,     1784, 0x44a492ef
0,       8704,       8704,      512,   153600, 0xea894293
1,      24990,      24990,     1024,     4096, 0x28ee30ee
1,      26014,      26014,      446,     1784, 0xce25962f
0,       9216,       9216,      512,   153600, 0x24d72ba6
1,      26460,      26460,     1024,     4096, 0xb320bc3d
1,      27484,      27484,      446,     1784, 0xc5cdf3a7
0,       9728,       9728,      512,   153600, 0xfe32ed44
1,      27930,      27930,     1024,     4096, 0xc730a020
1,      28954,      28954,      446,     1784, 0x1248e492
0,      10240,      10240,      512,   153600, 0xa43dcc75
1,      29400,      29400,     1024,     4096, 0x07cf6407
1,      30424,      30424,      446,     1784, 0x155bbac8
0,      10752,      10752,      512,   153600, 0xdfe18d01
1,      30870,      30870,     1024,     4096, 0x2182d0c9
1,      31894,      31894,      446,     1784, 0x18ff8185
0,      11264,      11264,      512,   153600, 0x516f7394
1,      32340,      32340,     1024,     4096, 0x202fd782
1,      33364,      33364,      446,     1784, 0x530d144b
0,      11776,      11776,      512,   153600, 0xaacd57a3
1,      33810,      33810,     1024,     4096, 0x04cf576c
1,      34834,      34834,      446,     1784, 0x066955e5
0,      12288,      12288,      512,   153600, 0xcd7a50b3
1,      35280,      35280,     1024,     4096, 0x128b32a6
1,      36304,      36304,      446,     1784, 0x20afd93f
0,      12800,      12800,      512,   153600, 0xd7723d69
1,      36750,      36750,     1024,     4096, 0xf37b48e0
1,      37774,      37774,      446,     1784, 0x2d1c4cb7
0,      13312,      13312,      512,   153600, 0x8d7d4715
1,      38220,      38220,     1024,     4096, 0x95311c5a
1,      39244,      39244,      446,     1784, 0x442f1e5b
0,      13824,      13824,      512,   153600, 0x75c52b24
1,      39690,      39690,     1024,     4096, 0xc4496e29
1,      40714,      40714,      446,     1784, 0x2f2cba6d
0,      14336,      14336,      512,   153600, 0x3d44473f
1,      41160,      41160,     1024,     4096, 0x4902a175
1,      42184,      42184,      446,     1784, 0x8fd558f9
0,      14848,      14848,      512,   153600, 0xad374e14
1,      42630,      42630,     1024,     4096, 0x3f935de2
1,      43654,      43654,      446,     1784, 0x8f2770b7
0,      15360,      15360,      512,   153600, 0xa6b06c44
1,      44100,      44100,     1024,     4096, 0x7113d8c7
1,      45124,      45124,      446,     1784, 0xcb9f2b5b
0,      15872,      15872,      512,   153600, 0x7d3373b4
1,      45570,      45570,     1024,     4096, 0x361b35ca
1,      46594,      46594,      446,     1784, 0x0fca63cf
0,      16384,      16384,      512,   153600, 0x6b639b1f
1,      47040,      47040,     1024,     4096, 0x05afab3c
1,      48064,      48064,      446,     1784, 0x3e660396
0,      16896,      16896,      512,   153600, 0xc4dcc7cd
1,      48510,      48510,     1024,     4096, 0x14b703ea
1,      49534,      49534,      446,     1784, 0xfdddfb68
0,      17408,      17408,      512,   153600, 0x6f8c0313
1,      49980,      49980,     1024,     4096, 0xec4f1ec0
1,      51004,      51004,      446,     1784, 0x19a6592d
0,      17920,      17920,      512,   153600, 0xd1c32a50
1,      51450,      51450,     1024,     4096, 0x57aac7e5
1,      52474,      52474,      446,     1784, 0x429db17d
0,      18432,      18432,      512,   153600, 0x53036b6a
1,      52920,      52920,     1024,     4096, 0x4b6dea29
1,      53944,      53944,      446,     1784, 0xe18d80a3
0,      18944,      18944,      512,   153600, 0x82e48893
1,      54390,      54390,     1024,     4096, 0x4392bff9
1,      55414,      55414,      446,     1784, 0xe80652e9
0,      19456,      19456,      512,   153600, 0x3287d49d
1,      55860,      55860,     1024,     4096, 0x0eb5086e
1,      56884,      56884,      446,     1784, 0xf4fbcb36
0,      19968,      19968,      512,   153600, 0x25e8fe41
1,      57330,      57330,     1024,     4096, 0x1124ded7
1,      58354,      58354,      446,     1784, 0x2456acc4
0,      20480,      20480,      512,   153600, 0x1c2e377d
1,      58800,      58800,     1024,     4096, 0x6e55d6ed
1,      59824,      59824,      446,     1784, 0x27765f0f
0,      20992,      20992,      512,   153600, 0xbd734d88
1,      60270,      60270,     1024,     4096, 0xb212547b
1,      61294,      61294,      446,     1784, 0x16e416e0
0,      21504,      21504,      512,   153600, 0x74bd8159
1,      61740,      61740,     1024,     4096, 0xc4ceebb9
1,      62764,      62764,      446,     1784, 0xc5fc73a7
0,      22016,      22016,      512,   153600, 0x5934b92d
1,      63210,      63210,     1024,     4096, 0xfa489766
1,      64234,      64234,      446,     1784, 0xa4cb13e8
0,      22528,      22528,      512,   153600, 0x36a9ebc3
1,      64680,      64680,     1024,     4096, 0xf615b4fa
1,      65704,      65704,      446,     1784, 0x31f5c625
0,      23040,      23040,      512,   153600, 0x9b7723f1
1,      66150,      66150,     1024,     4096, 0x366e2f60
1,      67174,      67174,      446,     1784, 0xdeeb25bf
0,      23552,      23552,      512,   153600, 0x62734e1e
1,      67620,      67620,     1024,     4096, 0x902b6cea
1,      68644,      68644,      446,     1784, 0x1ba533e7
0,      24064,      24064,      512,   153600, 0x23967444
1,      69090,      69090,     1024,     4096, 0xd1614436
1,      70114,      70114,      446,     1784, 0x7fa77fb1
0,      24576,      24576,      512,   153600, 0xdb16ac8a
1,      70560,      70560,     1024,     4096, 0xc19677bd
1,      71584,      71584,      446,     1784, 0x3c38962b
0,      25088,      25088,      512,   153600, 0x8318db7b
1,      72030,      72030,     1024,     4096, 0xa1cdc61f
1,      73054,      73054,      446,     1784, 0x72671a59
0,      25600,      25600,      512,   153600, 0x6869f0a7
1,      73500,      73500,     1024,     4096, 0xf7bec61f
1,      74524,      74524,      446,     1784, 0x5c6cd72d
0,      26112,      26112,      512,   153600, 0x821bfac3
1,      74970,      74970,     1024,     4096, 0x848665bd
1,      75994,      75994,      446,     1784, 0xac1a451b
0,      26624,      26624,      512,   153600, 0x6e42218e
1,      76440,      76440,     1024,     4096, 0xc31ae4b3
1,      77464,      77464,      446,     1784, 0xa261c72f
0,      27136,      27136,      512,   153600, 0xbab03d35
1,      77910,      77910,     1024,     4096, 0x0ef00bd8
1,      78934,      78934,      446,     1784, 0x850e4eed
0,      27648,      27648,      512,   153600, 0x604655ad
1,      79380,      79380,     1024,     4096, 0x92a0ea8b
1,      80404,      80404,      446,     1784, 0xacd9a699
0,      28160,      28160,      512,   153600, 0x8c625d0f
1,      80850,      80850,     1024,     4096, 0x3d2a0fa4
1,      81874,      81874,      446,     1784, 0x63cf5def
0,      28672,      28672,      512,   153600, 0xf9117491
1,      82320,      82320,     1024,     4096, 0x214abb7b
1,      83344,      83344,      446,     1784, 0x6629614b
0,      29184,      29184,      512,   153600, 0x88c464da
1,      83790,      83790,     1024,     4096, 0x925435bc
1,      84814,      84814,      446,     1784, 0xd0414b79
0,      29696,      29696,      512,   153600, 0x70387d8a
1,      85260,      85260,     1024,     4096, 0x4fee1484
1,      86284,      86284,      446,     1784, 0x37d7f987
0,      30208,      30208,      512,   153600, 0x0b1d70b2
1,      86730,      86730,     1024,     4096, 0xb430bb33
1,      87754,      87754,      446,     1784, 0x33596609
0,      30720,      30720,      512,   153600, 0x6bee7648
1,      88200,      88200,     1024,     4096, 0xac28f121
1,      89224,      89224,      446,     1784, 0x3637b3f5
0,      31232,      31232,      512,   153600, 0x3b345d9e
1,      89670,      89670,     1024,     4096, 0x42549aa7
1,      90694,      90694,      446,     1784, 0xef15abaf
0,      31744,      31744,      512,   153600, 0x1ea85693
1,      91140,      91140,     1024,     4096, 0x03269ad9
1,      92164,      92164,      446,     1784, 0xa7f2a2c5
0,      32256,      32256,      512,   153600, 0xc0f05359
1,      92610,      92610,     1024,     4096, 0xb3fe65a8
1,      93634,      93634,      446,     1784, 0xcb37b40b
0,      32768,      32768,      512,   153600, 0x725a46a8
1,      94080,      94080,     1024,     4096, 0x9bbc4e0a
1,      95104,      95104,      446,     1784, 0xb39c4f37
0,      33280,      33280,      512,   153600, 0x65af3260
1,      95550,      95550,     1024,     4096, 0x5aa2d187
1,      96574,      96574,      446,     1784, 0xe20b5fa9
0,      33792,      33792,      512,   153600, 0xe18d32b5
1,      97020,      97020,     1024,     4096, 0x2c7c9305
1,      98044,      98044,      446,     1784, 0x787b5c37
0,      34304,      34304,      512,   153600, 0xc4dc13ba
1,      98490,      98490,     1024,     4096, 0xee40abe9
1,      99514,      99514,      446,     1784, 0xec3eb855
0,      34816,      34816,      512,   153600, 0xf35a1394
1,      99960,      99960,     1024,     4096, 0x902d3574
1,     100984,     100984,      446,     1784, 0xe6ce6e51
0,      35328,      35328,      512,   153600, 0xae6a0bfe
1,     101430,     101430,     1024,     4096, 0xa6c70aaf
1,     102454,     102454,      446,     1784, 0x386953cf
0,      35840,      35840,      512,   153600, 0xd14de403
1,     102900,     102900,     1024,     4096, 0xfa4640a8
1,     103924,     103924,      446,     1784, 0xf23ab7f3
0,      36352,      36352,      512,   153600, 0x2911c7cc
1,     104370,     104370,     1024,     4096, 0x7b532631
1,     105394,     105394,      446,     1784, 0x283cca87
0,      36864,      36864,      512,   153600, 0x472dc19d
1,     105840,     105840,     1024,     4096, 0xffbd1c3e
1,     106864,     106864,      446,     1784, 0x4fc9a8ff
0,      37376,      37376,      512,   153600, 0xedc6be80
1,     107310,     107310,     1024,     4096, 0x20fd4a16
1,     108334,     108334,      446,     1784, 0xbb05cc43
0,      37888,      37888,      512,   153600, 0xa898d593
1,     108780,     108780,     1024,     4096, 0xb3e0805b
1,     109804,     109804,      446,     1784, 0x1f1cb1cb
0,      38400,      38400,      512,   153600, 0xb042d735
1,     110250,     110250,     1024,     4096, 0xf3c46bb2
1,     111274,     111274,      446,     1784, 0xe9f44011
0,      38912,      38912,      512,   153600, 0x7e6ff31a
1,     111720,     111720,     1024,     4096, 0x94f9f101
1,     112744,     112744,      446,     1784, 0xd6238707
0,      39424,      39424,      512,   153600, 0x664ee22f
1,     113190,     113190,     1024,     4096, 0xa779b40f
1,     114214,     114214,      446,     1784, 0x4bfebfaf
0,      39936,      39936,      512,   153600, 0x1cf10e8e
1,     114660,     114660,     1024,     4096, 0xaf10e8df
1,     115684,     115684,      446,     1784, 0x151762a1
0,      40448,      40448,      512,   153600, 0x4d91155f
1,     116130,     116130,     1024,     4096, 0x9448a38a
1,     117154,     117154,      446,     1784, 0xd4f1bf0d
0,      40960,      40960,      512,   153600, 0x0aa04298
1,     117600,     117600,     1024,     4096, 0x9fbac05a
1,     118624,     118624,      446,     1784, 0xbd04d389
0,      41472,      41472,      512,   153600, 0x28f536cc
1,     119070,     119070,     1024,     4096, 0x085f2180
1,     120094,     120094,      446,     1784, 0xb36585cf
0,      41984,      41984,      512,   153600, 0x2677528b
1,     120540,     120540,     1024,     4096, 0x97cff1c9
1,     121564,     121564,      446,     1784, 0x666d344b
0,      42496,      42496,      512,   153600, 0x52d062ad
1,     122010,     122010,     1024,     4096, 0xaa50b1b7
1,     123034,     123034,      446,     1784, 0xdbae3b1d
0,      43008,      43008,      512,   153600, 0xe5598434
1,     123480,     123480,     1024,     4096, 0xbedb6071
1,     124504,     124504,      446,     1784, 0x705febf2
0,      43520,      43520,      512,   153600, 0xe8e39b99
1,     124950,     124950,     1024,     4096, 0xc794b8ba
1,     125974,     125974,      446,     1784, 0x1be58ced
0,      44032,      44032,      512,   153600, 0x6fdde2c7
1,     126420,     126420,     1024,     4096, 0x1f040d78
1,     127444,     127444,      446,     1784, 0xf1f78247
0,      44544,      44544,      512,   153600, 0x41155836
1,     127890,     127890,     1024,     4096, 0x4a7d964b
1,     128914,     128914,      446,     1784, 0x2a179edb
0,      45056,      45056,      512,   153600, 0x66a62b18
1,     129360,     129360,     1024,     4096, 0x7659498d
1,     130384,     130384,      446,     1784, 0x752dbdf7
0,      45568,      45568,      512,   153600, 0xa252f1a5
1,     130830,     130830,     1024,     4096, 0xe158f23d
1,     131854,     131854,      446,     1784, 0x98fe53f1
0,      46080,      46080,      512,   153600, 0xcb88c6bf
1,     132300,     132300,     1024,     4096, 0x8eb2303a
1,     133324,     133324,      446,     1784, 0x13251fab
0,      46592,      46592,      512,   153600, 0x3efe8eb6
1,     133770,     133770,     1024,     4096, 0xc11878b5
1,     134794,     134794,      446,     1784, 0xf5258afb
0,      47104,      47104,      512,   153600, 0x79228eec
1,     135240,     135240,     1024,     4096, 0x5f775158
1,     136264,     136264,      446,     1784, 0x992ab241
0,      47616,      47616,      512,   153600, 0x34788da4
1,     136710,     136710,     1024,     4096, 0xff0a896b
1,     137734,     137734,      446,     1784, 0x98ac82f3
0,      48128,      48128,      512,   153600, 0xda91a566
1,     138180,     138180,     1024,     4096, 0xdd852c58
1,     139204,     139204,      446,     1784, 0x4c79946b
0,      48640,      48640,      512,   153600, 0x8b4dadea
1,     139650,     139650,     1024,     4096, 0x7887773f
1,     140674,     140674,      446,     1784, 0x92f98d83
0,      49152,      49152,      512,   153600, 0x5d13dacd
1,     141120,     141120,     1024,     4096, 0x701c0286
1,     142144,     142144,      446,     1784, 0xb235866f
0,      49664,      49664,      512,   153600, 0xe8c0c567
1,     142590,     142590,     1024,     4096, 0xf0e2590a
1,     143614,     143614,      446,     1784, 0x56859729
0,      50176,      50176,      512,   153600, 0x5a6bfb67
1,     144060,     144060,     1024,     4096, 0x3874a89d
1,     145084,     145084,      446,     1784, 0xf768b70b
0,      50688,      50688,      512,   153600, 0x5b30fca3
1,     145530,     145530,     1024,     4096, 0x517b0cac
1,     146554,     146554,      446,     1784, 0x43919d21
0,      51200,      51200,      512,   153600, 0x8a313625
1,     147000,     147000,     1024,     4096, 0x075af55b
1,     148024,     148024,      446,     1784, 0x2205bebd
0,      51712,      51712,      512,   153600, 0xf6f500cb
1,     148470,     148470,     1024,     4096, 0x1e2cc783
1,     149494,     149494,      446,     1784, 0xf44e7ea1
0,      52224,      52224,      512,   153600, 0x86a8e3a7
1,     149940,     149940,     1024,     4096, 0x81dbf6c1
1,     150964,     150964,      446,     1784, 0x65354e0f
0,      52736,      52736,      512,   153600, 0xba0ba89c
1,     151410,     151410,     1024,     4096, 0x4ac3e60f
1,     152434,     152434,      446,     1784, 0xfbf6316b
0,      53248,      53248,      512,   153600, 0x4c717262
1,     152880,     152880,     1024,     4096, 0x3b9fcf3b
1,     153904,     153904,      446,     1784, 0x5feb74b1
0,      53760,      53760,      512,   153600, 0x30321af3
1,     154350,     154350,     1024,     4096, 0x8cd7c28d
1,     155374,     155374,      446,     1784, 0x6da68bff
0,      54272,      54272,      512,   153600, 0x6bd1db92
1,     155820,     155820,     1024,     4096, 0x17e43327
1,     156844,     156844,      446,     1784, 0xcf4e3549
0,      54784,      54784,      512,   153600, 0xfaad5de1
1,     157290,     157290,     1024,     4096, 0xfc08f8ad
1,     158314,     158314,      446,     1784, 0x210fc627
0,      55296,      55296,      512,   153600, 0x313a17c1
1,     158760,     158760,     1024,     4096, 0xcd0d48b8
1,     159784,     159784,      446,     1784, 0x1c2c9e19
0,      55808,      55808,      512,   153600, 0xdd698cc5
1,     160230,     160230,     1024,     4096, 0x48874770
1,     161254,     161254,      446,     1784, 0x4b079283
0,      56320,      56320,      512,   153600, 0xd3f6e085
1,     161700,     161700,     1024,     4096, 0x3b800c02
1,     162724,     162724,      446,     1784, 0xdf0edaa3
0,      56832,      56832,      512,   153600, 0x0e791dee
1,     163170,     163170,     1024,     4096, 0x1c2b4ed2
1,     164194,     164194,      446,     1784, 0x95ab2bc7
0,      57344,      57344,      512,   153600, 0x23797750
1,     164640,     164640,     1024,     4096, 0xf8600cc2
1,     165664,     165664,      446,     1784, 0x3cb6c5ed
0,      57856,      57856,      512,   153600, 0x2ab6ba9b
1,     166110,     166110,     1024,     4096, 0x0bbe3af0
1,     167134,     167134,      446,     1784, 0xa819b71b
0,      58368,      58368,      512,   153600, 0x29eaf4d8
1,     167580,     167580,     1024,     4096, 0x7e012a8c
1,     168604,     168604,      446,     1784, 0xab245be3
0,      58880,      58880,      512,   153600, 0x70220df4
1,     169050,     169050,     1024,     4096, 0xc7eefb97
1,     170074,     170074,      446,     1784, 0xf66a729b
0,      59392,      59392,      512,   153600, 0x0a4834ba
1,     170520,     170520,     1024,     4096, 0x5956bcb4
1,     171544,     171544,      446,     1784, 0x803eeecc
0,      59904,      59904,      512,   153600, 0xa9e41cde
1,     171990,     171990,     1024,     4096, 0x282070f1
1,     173014,     173014,      446,     1784, 0x3907cb49
0,      60416,      60416,      512,   153600, 0xf09846c4
1,     173460,     173460,     1024,     4096, 0xcf351e70
1,     174484,     174484,      446,     1784, 0xf8c38911
0,      60928,      60928,      512,   153600, 0x820c3c4a
1,     174930,     174930,     1024,     4096, 0x5d4c02ee
1,     175954,     175954,      446,     1784, 0x6d815dcd
